<svg xmlns="http://www.w3.org/2000/svg" viewBox="0 0 410 404" fill="none">
  <path d="M399.641 59.5246L215.643 388.545C210.689 397.369 198.311 397.464 193.231 388.732L10.3617 59.6129C5.00174 50.3258 12.4381 39.0941 23.0153 40.0379L205.223 56.5314C206.398 56.6364 207.58 56.6364 208.755 56.5314L386.876 40.0829C397.418 39.1451 404.887 50.2135 399.617 59.4879L399.641 59.5246Z" fill="url(#paint0_linear)" />
  <path d="M292.965 1.5744L156.801 13.8896C154.563 14.0904 152.559 15.2725 151.314 17.1303L6.07939 234.478C2.32853 240.09 6.77368 247.654 13.5465 246.999L120.811 236.616C123.196 236.376 125.259 234.872 126.241 232.645L181.012 108.474C183.037 103.79 189.833 103.62 192.086 108.207L241.399 207.17C243.724 211.907 250.799 211.599 252.651 206.703L317.195 28.6743C319.29 22.881 315.005 16.6468 308.884 17.1764L205.369 26.1792C200.523 26.6087 196.406 22.2691 196.951 17.4385L198.859 0.932186C199.387 -3.76905 203.588 -7.17083 208.316 -6.68566L292.965 1.5744Z" fill="url(#paint1_linear)" />
  <defs>
    <linearGradient id="paint0_linear" x1="6.00017" y1="32.9999" x2="235" y2="344" gradientUnits="userSpaceOnUse">
      <stop stop-color="#8b5cf6" />
      <stop offset="1" stop-color="#00e5a8" />
    </linearGradient>
    <linearGradient id="paint1_linear" x1="106.667" y1="-7.00012" x2="239.333" y2="259.5" gradientUnits="userSpaceOnUse">
      <stop stop-color="#00e5a8" />
      <stop offset="1" stop-color="#8b5cf6" />
    </linearGradient>
  </defs>
</svg>
